{"accessors" : [{"bufferView" : 0, "byteOffset" : 0, "componentType" : 5123, "count" : 348, "type" : "SCALAR", "max" : [74], "min" : [0]}, {"bufferView" : 1, "byteOffset" : 0, "componentType" : 5126, "count" : 75, "type" : "VEC3", "max" : [227.53250122070312, 313.5880126953125, -18.08769989013672], "min" : [-54.824798583984375, 7.2820000648498535, -56.898101806640625]}, {"bufferView" : 1, "byteOffset" : 12, "componentType" : 5126, "count" : 75, "type" : "VEC2", "max" : [1, -0.16670000553131104], "min" : [0, -0.5555999875068665]}, {"bufferView" : 1, "byteOffset" : 20, "componentType" : 5126, "count" : 75, "type" : "VEC3", "max" : [0.7257087826728821, 0.7816910743713379, 0.7273229956626892], "min" : [-0.7754952907562256, -0.7160022258758545, -0.7273229956626892]}, {"bufferView" : 0, "byteOffset" : 696, "componentType" : 5123, "count" : 660, "type" : "SCALAR", "max" : [133], "min" : [0]}, {"bufferView" : 2, "byteOffset" : 0, "componentType" : 5126, "count" : 134, "type" : "VEC3", "max" : [164.6956024169922, 351.35101318359375, 5.103400230407715], "min" : [-316.6528015136719, 9.552399635314941, -33.707000732421875]}, {"bufferView" : 2, "byteOffset" : 12, "componentType" : 5126, "count" : 134, "type" : "VEC2", "max" : [1, -0], "min" : [0, -1]}, {"bufferView" : 2, "byteOffset" : 20, "componentType" : 5126, "count" : 134, "type" : "VEC3", "max" : [0.7257087826728821, 0.7160022258758545, 0.9047378897666931], "min" : [-0.7515017986297607, -0.7227706909179688, -0.9049554467201233]}, {"bufferView" : 0, "byteOffset" : 2016, "componentType" : 5123, "count" : 36, "type" : "SCALAR", "max" : [7], "min" : [0]}, {"bufferView" : 3, "byteOffset" : 0, "componentType" : 5126, "count" : 8, "type" : "VEC3", "max" : [27.36590003967285, 411.5602111816406, 28.58209991455078], "min" : [-274.1278991699219, 366.7349853515625, -10.22819995880127]}, {"bufferView" : 3, "byteOffset" : 12, "componentType" : 5126, "count" : 8, "type" : "VEC2", "max" : [1, -0], "min" : [0, -1]}, {"bufferView" : 3, "byteOffset" : 20, "componentType" : 5126, "count" : 8, "type" : "VEC3", "max" : [0.57735276222229, 0.6930037140846252, 0.6134033203125], "min" : [-0.731017529964447, -0.57735276222229, -0.6134033203125]}], "asset" : {"generator" : "Aspose.3D 21.1", "version" : "2.0"}, "buffers" : [{"uri" : "buffer.bin", "byteLength" : 35512}], "bufferViews" : [{"buffer" : 0, "byteOffset" : 0, "byteLength" : 2088, "target" : 34963}, {"buffer" : 0, "byteOffset" : 2092, "byteLength" : 11136, "byteStride" : 32, "target" : 34962}, {"buffer" : 0, "byteOffset" : 13232, "byteLength" : 21120, "byteStride" : 32, "target" : 34962}, {"buffer" : 0, "byteOffset" : 34356, "byteLength" : 1152, "byteStride" : 32, "target" : 34962}], "meshes" : [{"primitives" : [{"attributes" : {"POSITION" : 1, "TEXCOORD_0" : 2, "NORMAL" : 3}, "indices" : 0, "mode" : 4}]}, {"primitives" : [{"attributes" : {"POSITION" : 5, "TEXCOORD_0" : 6, "NORMAL" : 7}, "indices" : 4, "mode" : 4}]}, {"primitives" : [{"attributes" : {"POSITION" : 9, "TEXCOORD_0" : 10, "NORMAL" : 11}, "indices" : 8, "mode" : 4}]}], "nodes" : [{"mesh" : 0, "name" : "Object001"}, {"mesh" : 1, "name" : "Plane004"}, {"mesh" : 2, "name" : "Object002"}], "scene" : 0, "scenes" : [{"nodes" : [0, 1, 2]}]}